<svg xmlns="http://www.w3.org/2000/svg" width="1480" height="720" viewBox="0 0 1480 720">
<rect width="100%" height="100%" fill="#fffaf2"/>
<text x="740.0" y="34.0" font-size="22" font-family="DejaVu Sans, Arial, sans-serif" text-anchor="middle" font-weight="700" fill="#1f2a33">Raw / Newest Without Reorder / Newest With Reorder / Manual, S=1024</text>
<text x="740.0" y="58.0" font-size="12" font-family="DejaVu Sans, Arial, sans-serif" text-anchor="middle" fill="#53606b">Y axis: runtime in ms, max=1.5. Missing bars are SKIP/CRASH/TIMEOUT.</text>
<line x1="82" y1="530.0" x2="1450" y2="530.0" stroke="#e6ded2" stroke-width="1"/>
<text x="72.0" y="534.0" font-size="11" font-family="DejaVu Sans, Arial, sans-serif" text-anchor="end" fill="#53606b">0.0</text>
<line x1="82" y1="438.4" x2="1450" y2="438.4" stroke="#e6ded2" stroke-width="1"/>
<text x="72.0" y="442.4" font-size="11" font-family="DejaVu Sans, Arial, sans-serif" text-anchor="end" fill="#53606b">0.3</text>
<line x1="82" y1="346.8" x2="1450" y2="346.8" stroke="#e6ded2" stroke-width="1"/>
<text x="72.0" y="350.8" font-size="11" font-family="DejaVu Sans, Arial, sans-serif" text-anchor="end" fill="#53606b">0.6</text>
<line x1="82" y1="255.2" x2="1450" y2="255.2" stroke="#e6ded2" stroke-width="1"/>
<text x="72.0" y="259.2" font-size="11" font-family="DejaVu Sans, Arial, sans-serif" text-anchor="end" fill="#53606b">0.9</text>
<line x1="82" y1="163.6" x2="1450" y2="163.6" stroke="#e6ded2" stroke-width="1"/>
<text x="72.0" y="167.6" font-size="11" font-family="DejaVu Sans, Arial, sans-serif" text-anchor="end" fill="#53606b">1.2</text>
<line x1="82" y1="72.0" x2="1450" y2="72.0" stroke="#e6ded2" stroke-width="1"/>
<text x="72.0" y="76.0" font-size="11" font-family="DejaVu Sans, Arial, sans-serif" text-anchor="end" fill="#53606b">1.5</text>
<line x1="82" y1="72" x2="82" y2="530" stroke="#2f3942" stroke-width="1.2"/>
<line x1="82" y1="530" x2="1450" y2="530" stroke="#2f3942" stroke-width="1.2"/>
<text x="22.0" y="301.0" font-size="13" font-family="DejaVu Sans, Arial, sans-serif" text-anchor="middle" fill="#2f3942" transform="rotate(-90 22 301.0)">ms</text>
<rect x="82" y="680" width="16" height="16" rx="3" fill="#4C78A8"/>
<text x="106.0" y="693.0" font-size="13" font-family="DejaVu Sans, Arial, sans-serif" text-anchor="start" fill="#1f2a33">Raw</text>
<rect x="327" y="680" width="16" height="16" rx="3" fill="#F58518"/>
<text x="351.0" y="693.0" font-size="13" font-family="DejaVu Sans, Arial, sans-serif" text-anchor="start" fill="#1f2a33">Newest (without reorder)</text>
<rect x="572" y="680" width="16" height="16" rx="3" fill="#54A24B"/>
<text x="596.0" y="693.0" font-size="13" font-family="DejaVu Sans, Arial, sans-serif" text-anchor="start" fill="#1f2a33">Newest (with reorder)</text>
<rect x="817" y="680" width="16" height="16" rx="3" fill="#B279A2"/>
<text x="841.0" y="693.0" font-size="13" font-family="DejaVu Sans, Arial, sans-serif" text-anchor="start" fill="#1f2a33">Manual</text>
<text x="139.0" y="554.0" font-size="11" font-family="DejaVu Sans, Arial, sans-serif" text-anchor="end" fill="#28323b" transform="rotate(-38 139.0 554.0)">band global bs</text>
<rect x="96.2" y="414.0" width="18.0" height="116.0" fill="#4C78A8" rx="2"/>
<text x="105.2" y="428.0" font-size="9" font-family="DejaVu Sans, Arial, sans-serif" text-anchor="middle" fill="white" font-weight="700">0.38</text>
<rect x="118.8" y="413.4" width="18.0" height="116.6" fill="#F58518" rx="2"/>
<text x="127.8" y="427.4" font-size="9" font-family="DejaVu Sans, Arial, sans-serif" text-anchor="middle" fill="white" font-weight="700">0.38</text>
<rect x="141.2" y="418.6" width="18.0" height="111.4" fill="#54A24B" rx="2"/>
<text x="150.2" y="432.6" font-size="9" font-family="DejaVu Sans, Arial, sans-serif" text-anchor="middle" fill="white" font-weight="700">0.36</text>
<rect x="163.8" y="405.7" width="18.0" height="124.3" fill="#B279A2" rx="2"/>
<text x="172.8" y="419.7" font-size="9" font-family="DejaVu Sans, Arial, sans-serif" text-anchor="middle" fill="white" font-weight="700">0.41</text>
<text x="253.0" y="554.0" font-size="11" font-family="DejaVu Sans, Arial, sans-serif" text-anchor="end" fill="#28323b" transform="rotate(-38 253.0 554.0)">block diagonal 64 bs</text>
<rect x="210.2" y="413.1" width="18.0" height="116.9" fill="#4C78A8" rx="2"/>
<text x="219.2" y="427.1" font-size="9" font-family="DejaVu Sans, Arial, sans-serif" text-anchor="middle" fill="white" font-weight="700">0.38</text>
<rect x="232.8" y="399.3" width="18.0" height="130.7" fill="#F58518" rx="2"/>
<text x="241.8" y="413.3" font-size="9" font-family="DejaVu Sans, Arial, sans-serif" text-anchor="middle" fill="white" font-weight="700">0.43</text>
<rect x="255.2" y="411.8" width="18.0" height="118.2" fill="#54A24B" rx="2"/>
<text x="264.2" y="425.8" font-size="9" font-family="DejaVu Sans, Arial, sans-serif" text-anchor="middle" fill="white" font-weight="700">0.39</text>
<rect x="277.8" y="414.0" width="18.0" height="116.0" fill="#B279A2" rx="2"/>
<text x="286.8" y="428.0" font-size="9" font-family="DejaVu Sans, Arial, sans-serif" text-anchor="middle" fill="white" font-weight="700">0.38</text>
<text x="367.0" y="554.0" font-size="11" font-family="DejaVu Sans, Arial, sans-serif" text-anchor="end" fill="#28323b" transform="rotate(-38 367.0 554.0)">causal</text>
<rect x="324.2" y="340.7" width="18.0" height="189.3" fill="#4C78A8" rx="2"/>
<text x="333.2" y="354.7" font-size="9" font-family="DejaVu Sans, Arial, sans-serif" text-anchor="middle" fill="white" font-weight="700">0.62</text>
<rect x="346.8" y="382.2" width="18.0" height="147.8" fill="#F58518" rx="2"/>
<text x="355.8" y="396.2" font-size="9" font-family="DejaVu Sans, Arial, sans-serif" text-anchor="middle" fill="white" font-weight="700">0.48</text>
<text x="378.2" y="500.0" font-size="8" font-family="DejaVu Sans, Arial, sans-serif" text-anchor="middle" fill="#54A24B" font-weight="700">SKIP</text>
<rect x="391.8" y="421.3" width="18.0" height="108.7" fill="#B279A2" rx="2"/>
<text x="400.8" y="435.3" font-size="9" font-family="DejaVu Sans, Arial, sans-serif" text-anchor="middle" fill="white" font-weight="700">0.36</text>
<text x="481.0" y="554.0" font-size="11" font-family="DejaVu Sans, Arial, sans-serif" text-anchor="end" fill="#28323b" transform="rotate(-38 481.0 554.0)">checkerboard 64 bs</text>
<rect x="438.2" y="412.8" width="18.0" height="117.2" fill="#4C78A8" rx="2"/>
<text x="447.2" y="426.8" font-size="9" font-family="DejaVu Sans, Arial, sans-serif" text-anchor="middle" fill="white" font-weight="700">0.38</text>
<rect x="460.8" y="406.0" width="18.0" height="124.0" fill="#F58518" rx="2"/>
<text x="469.8" y="420.0" font-size="9" font-family="DejaVu Sans, Arial, sans-serif" text-anchor="middle" fill="white" font-weight="700">0.41</text>
<rect x="483.2" y="409.7" width="18.0" height="120.3" fill="#54A24B" rx="2"/>
<text x="492.2" y="423.7" font-size="9" font-family="DejaVu Sans, Arial, sans-serif" text-anchor="middle" fill="white" font-weight="700">0.39</text>
<rect x="505.8" y="169.7" width="18.0" height="360.3" fill="#B279A2" rx="2"/>
<text x="514.8" y="183.7" font-size="9" font-family="DejaVu Sans, Arial, sans-serif" text-anchor="middle" fill="white" font-weight="700">1.18</text>
<text x="595.0" y="554.0" font-size="11" font-family="DejaVu Sans, Arial, sans-serif" text-anchor="end" fill="#28323b" transform="rotate(-38 595.0 554.0)">dilated window bs</text>
<rect x="552.2" y="400.8" width="18.0" height="129.2" fill="#4C78A8" rx="2"/>
<text x="561.2" y="414.8" font-size="9" font-family="DejaVu Sans, Arial, sans-serif" text-anchor="middle" fill="white" font-weight="700">0.42</text>
<rect x="574.8" y="414.9" width="18.0" height="115.1" fill="#F58518" rx="2"/>
<text x="583.8" y="428.9" font-size="9" font-family="DejaVu Sans, Arial, sans-serif" text-anchor="middle" fill="white" font-weight="700">0.38</text>
<rect x="597.2" y="417.6" width="18.0" height="112.4" fill="#54A24B" rx="2"/>
<text x="606.2" y="431.6" font-size="9" font-family="DejaVu Sans, Arial, sans-serif" text-anchor="middle" fill="white" font-weight="700">0.37</text>
<rect x="619.8" y="416.1" width="18.0" height="113.9" fill="#B279A2" rx="2"/>
<text x="628.8" y="430.1" font-size="9" font-family="DejaVu Sans, Arial, sans-serif" text-anchor="middle" fill="white" font-weight="700">0.37</text>
<text x="709.0" y="554.0" font-size="11" font-family="DejaVu Sans, Arial, sans-serif" text-anchor="end" fill="#28323b" transform="rotate(-38 709.0 554.0)">global local bs</text>
<rect x="666.2" y="352.0" width="18.0" height="178.0" fill="#4C78A8" rx="2"/>
<text x="675.2" y="366.0" font-size="9" font-family="DejaVu Sans, Arial, sans-serif" text-anchor="middle" fill="white" font-weight="700">0.58</text>
<rect x="688.8" y="370.9" width="18.0" height="159.1" fill="#F58518" rx="2"/>
<text x="697.8" y="384.9" font-size="9" font-family="DejaVu Sans, Arial, sans-serif" text-anchor="middle" fill="white" font-weight="700">0.52</text>
<rect x="711.2" y="410.9" width="18.0" height="119.1" fill="#54A24B" rx="2"/>
<text x="720.2" y="424.9" font-size="9" font-family="DejaVu Sans, Arial, sans-serif" text-anchor="middle" fill="white" font-weight="700">0.39</text>
<rect x="733.8" y="406.0" width="18.0" height="124.0" fill="#B279A2" rx="2"/>
<text x="742.8" y="420.0" font-size="9" font-family="DejaVu Sans, Arial, sans-serif" text-anchor="middle" fill="white" font-weight="700">0.41</text>
<text x="823.0" y="554.0" font-size="11" font-family="DejaVu Sans, Arial, sans-serif" text-anchor="end" fill="#28323b" transform="rotate(-38 823.0 554.0)">hybrid sparse bs</text>
<rect x="780.2" y="415.5" width="18.0" height="114.5" fill="#4C78A8" rx="2"/>
<text x="789.2" y="429.5" font-size="9" font-family="DejaVu Sans, Arial, sans-serif" text-anchor="middle" fill="white" font-weight="700">0.38</text>
<rect x="802.8" y="412.8" width="18.0" height="117.2" fill="#F58518" rx="2"/>
<text x="811.8" y="426.8" font-size="9" font-family="DejaVu Sans, Arial, sans-serif" text-anchor="middle" fill="white" font-weight="700">0.38</text>
<rect x="825.2" y="417.3" width="18.0" height="112.7" fill="#54A24B" rx="2"/>
<text x="834.2" y="431.3" font-size="9" font-family="DejaVu Sans, Arial, sans-serif" text-anchor="middle" fill="white" font-weight="700">0.37</text>
<rect x="847.8" y="410.0" width="18.0" height="120.0" fill="#B279A2" rx="2"/>
<text x="856.8" y="424.0" font-size="9" font-family="DejaVu Sans, Arial, sans-serif" text-anchor="middle" fill="white" font-weight="700">0.39</text>
<text x="937.0" y="554.0" font-size="11" font-family="DejaVu Sans, Arial, sans-serif" text-anchor="end" fill="#28323b" transform="rotate(-38 937.0 554.0)">multiscale dilated bs</text>
<rect x="894.2" y="411.5" width="18.0" height="118.5" fill="#4C78A8" rx="2"/>
<text x="903.2" y="425.5" font-size="9" font-family="DejaVu Sans, Arial, sans-serif" text-anchor="middle" fill="white" font-weight="700">0.39</text>
<rect x="916.8" y="407.3" width="18.0" height="122.7" fill="#F58518" rx="2"/>
<text x="925.8" y="421.3" font-size="9" font-family="DejaVu Sans, Arial, sans-serif" text-anchor="middle" fill="white" font-weight="700">0.40</text>
<rect x="939.2" y="420.4" width="18.0" height="109.6" fill="#54A24B" rx="2"/>
<text x="948.2" y="434.4" font-size="9" font-family="DejaVu Sans, Arial, sans-serif" text-anchor="middle" fill="white" font-weight="700">0.36</text>
<rect x="961.8" y="407.0" width="18.0" height="123.0" fill="#B279A2" rx="2"/>
<text x="970.8" y="421.0" font-size="9" font-family="DejaVu Sans, Arial, sans-serif" text-anchor="middle" fill="white" font-weight="700">0.40</text>
<text x="1051.0" y="554.0" font-size="11" font-family="DejaVu Sans, Arial, sans-serif" text-anchor="end" fill="#28323b" transform="rotate(-38 1051.0 554.0)">nested bs</text>
<rect x="1008.2" y="408.2" width="18.0" height="121.8" fill="#4C78A8" rx="2"/>
<text x="1017.2" y="422.2" font-size="9" font-family="DejaVu Sans, Arial, sans-serif" text-anchor="middle" fill="white" font-weight="700">0.40</text>
<rect x="1030.8" y="417.9" width="18.0" height="112.1" fill="#F58518" rx="2"/>
<text x="1039.8" y="431.9" font-size="9" font-family="DejaVu Sans, Arial, sans-serif" text-anchor="middle" fill="white" font-weight="700">0.37</text>
<rect x="1053.2" y="413.7" width="18.0" height="116.3" fill="#54A24B" rx="2"/>
<text x="1062.2" y="427.7" font-size="9" font-family="DejaVu Sans, Arial, sans-serif" text-anchor="middle" fill="white" font-weight="700">0.38</text>
<rect x="1075.8" y="396.9" width="18.0" height="133.1" fill="#B279A2" rx="2"/>
<text x="1084.8" y="410.9" font-size="9" font-family="DejaVu Sans, Arial, sans-serif" text-anchor="middle" fill="white" font-weight="700">0.44</text>
<text x="1165.0" y="554.0" font-size="11" font-family="DejaVu Sans, Arial, sans-serif" text-anchor="end" fill="#28323b" transform="rotate(-38 1165.0 554.0)">prefix lm bs</text>
<rect x="1122.2" y="408.8" width="18.0" height="121.2" fill="#4C78A8" rx="2"/>
<text x="1131.2" y="422.8" font-size="9" font-family="DejaVu Sans, Arial, sans-serif" text-anchor="middle" fill="white" font-weight="700">0.40</text>
<rect x="1144.8" y="415.2" width="18.0" height="114.8" fill="#F58518" rx="2"/>
<text x="1153.8" y="429.2" font-size="9" font-family="DejaVu Sans, Arial, sans-serif" text-anchor="middle" fill="white" font-weight="700">0.38</text>
<rect x="1167.2" y="417.9" width="18.0" height="112.1" fill="#54A24B" rx="2"/>
<text x="1176.2" y="431.9" font-size="9" font-family="DejaVu Sans, Arial, sans-serif" text-anchor="middle" fill="white" font-weight="700">0.37</text>
<rect x="1189.8" y="405.7" width="18.0" height="124.3" fill="#B279A2" rx="2"/>
<text x="1198.8" y="419.7" font-size="9" font-family="DejaVu Sans, Arial, sans-serif" text-anchor="middle" fill="white" font-weight="700">0.41</text>
<text x="1279.0" y="554.0" font-size="11" font-family="DejaVu Sans, Arial, sans-serif" text-anchor="end" fill="#28323b" transform="rotate(-38 1279.0 554.0)">sliding window 128 bs</text>
<rect x="1236.2" y="414.6" width="18.0" height="115.4" fill="#4C78A8" rx="2"/>
<text x="1245.2" y="428.6" font-size="9" font-family="DejaVu Sans, Arial, sans-serif" text-anchor="middle" fill="white" font-weight="700">0.38</text>
<rect x="1258.8" y="407.0" width="18.0" height="123.0" fill="#F58518" rx="2"/>
<text x="1267.8" y="421.0" font-size="9" font-family="DejaVu Sans, Arial, sans-serif" text-anchor="middle" fill="white" font-weight="700">0.40</text>
<rect x="1281.2" y="415.8" width="18.0" height="114.2" fill="#54A24B" rx="2"/>
<text x="1290.2" y="429.8" font-size="9" font-family="DejaVu Sans, Arial, sans-serif" text-anchor="middle" fill="white" font-weight="700">0.37</text>
<rect x="1303.8" y="411.8" width="18.0" height="118.2" fill="#B279A2" rx="2"/>
<text x="1312.8" y="425.8" font-size="9" font-family="DejaVu Sans, Arial, sans-serif" text-anchor="middle" fill="white" font-weight="700">0.39</text>
<text x="1393.0" y="554.0" font-size="11" font-family="DejaVu Sans, Arial, sans-serif" text-anchor="end" fill="#28323b" transform="rotate(-38 1393.0 554.0)">strided bs</text>
<rect x="1350.2" y="412.4" width="18.0" height="117.6" fill="#4C78A8" rx="2"/>
<text x="1359.2" y="426.4" font-size="9" font-family="DejaVu Sans, Arial, sans-serif" text-anchor="middle" fill="white" font-weight="700">0.39</text>
<rect x="1372.8" y="410.0" width="18.0" height="120.0" fill="#F58518" rx="2"/>
<text x="1381.8" y="424.0" font-size="9" font-family="DejaVu Sans, Arial, sans-serif" text-anchor="middle" fill="white" font-weight="700">0.39</text>
<rect x="1395.2" y="418.6" width="18.0" height="111.4" fill="#54A24B" rx="2"/>
<text x="1404.2" y="432.6" font-size="9" font-family="DejaVu Sans, Arial, sans-serif" text-anchor="middle" fill="white" font-weight="700">0.36</text>
<rect x="1417.8" y="409.1" width="18.0" height="120.9" fill="#B279A2" rx="2"/>
<text x="1426.8" y="423.1" font-size="9" font-family="DejaVu Sans, Arial, sans-serif" text-anchor="middle" fill="white" font-weight="700">0.40</text>
</svg>
